# xmcd CD database file
#
# Track frame offsets:
#	150
#	18752
#	31697
#	45540
#	71390
#	84715
#	96230
#	117017
#	130757
#	144537
#	157727
#	170652
#	186260
#	199660
#	227567
#	243587
#	256707
#	269032
#	293977
#	306165
#
# Disc length: 4263 seconds
#
# Revision: 0
# Processed by: cddbd v1.5PL3 Copyright (c) Steve Scherf et al.
# Submitted via: CDex 1.51
#
DISCID=0e10a514
DTITLE=Clarence Carter - Loneliness And Temptation and A Heart Full of Song
DYEAR=1996
DGENRE=Blues
TTITLE0=Love Ain't Here No More
TTITLE1=Take A Tast Of Your Love
TTITLE2=Glad To See You Walking In
TTITLE3=Just One More Day
TTITLE4=Let's Start Doing (What We Came Here To Do)
TTITLE5=Let's Live For Ourselves
TTITLE6=I Got Caught Makeing Love
TTITLE7=Is It Alright
TTITLE8=Dear Abby
TTITLE9=Take It All Off
TTITLE10=All Messed Up
TTITLE11=Heart Full Of Song
TTITLE12=Danger Point
TTITLE13=Jennings Alley
TTITLE14=Shoulder To Cry On
TTITLE15=That's What Your Love Means To Me
TTITLE16=Nothing Ventured, Nothing Gained
TTITLE17=Come Back Baby
TTITLE18=IThought It Was Over
TTITLE19=Don't Bother Me
EXTD=YEAR: 1996
EXTT0=
EXTT1=
EXTT2=
EXTT3=
EXTT4=
EXTT5=
EXTT6=
EXTT7=
EXTT8=
EXTT9=
EXTT10=
EXTT11=
EXTT12=
EXTT13=
EXTT14=
EXTT15=
EXTT16=
EXTT17=
EXTT18=
EXTT19=
PLAYORDER=
